<?xml version="1.0" standalone="no"?>
<!DOCTYPE svg PUBLIC "-//W3C//DTD SVG 20010904//EN"
 "http://www.w3.org/TR/2001/REC-SVG-20010904/DTD/svg10.dtd">
<svg version="1.0" xmlns="http://www.w3.org/2000/svg"
 width="963.000000pt" height="1280.000000pt" viewBox="0 0 963.000000 1280.000000"
 preserveAspectRatio="xMidYMid meet">

<g transform="translate(0.000000,1280.000000) scale(0.100000,-0.100000)"
fill="#000000" stroke="none">
<path d="M1136 12783 c2 -10 10 -72 19 -138 9 -66 20 -149 25 -185 6 -36 33
-225 60 -420 27 -195 54 -382 60 -415 5 -33 26 -170 45 -305 20 -135 56 -378
80 -540 24 -162 46 -317 49 -345 l5 -50 -14 55 c-8 30 -19 84 -24 120 -45 286
-64 320 -188 320 -41 0 -54 3 -43 10 11 7 4 10 -25 10 -51 0 -225 40 -225 51
0 12 -78 11 -82 -1 -5 -16 -98 74 -99 96 0 10 -3 13 -6 7 -10 -27 -31 -12 -38
26 -5 33 -11 40 -36 45 -16 3 -36 3 -44 0 -8 -4 -15 -1 -15 5 0 6 4 11 9 11 5
0 11 9 14 20 3 11 12 20 22 20 10 0 15 7 13 18 -2 11 3 17 15 16 18 -2 20 7
11 43 -6 21 -8 22 -35 8 -38 -20 -55 -19 -55 3 0 16 17 21 101 37 55 9 110 17
122 16 12 0 25 3 28 8 3 5 31 13 63 16 78 9 92 14 92 32 0 12 3 13 14 4 10 -9
16 -9 21 -1 4 6 4 14 1 17 -5 5 -64 -7 -98 -22 -13 -5 -18 -2 -18 9 0 9 -4 16
-10 16 -5 0 -10 9 -10 20 0 13 -7 20 -20 20 -17 0 -20 7 -20 39 0 35 -2 39
-26 39 -28 0 -44 16 -44 45 0 18 34 24 45 7 8 -13 102 -13 110 0 3 6 -2 13
-12 17 -16 6 -15 8 5 13 l24 5 -27 23 -26 22 -23 -25 c-30 -32 -46 -32 -46 1
0 22 -2 25 -15 14 -8 -7 -15 -19 -15 -26 0 -8 -7 -14 -15 -14 -11 0 -12 5 -5
26 16 40 12 51 -20 64 -22 9 -37 9 -61 1 -44 -15 -43 -15 -58 25 -12 34 -14
35 -32 18 -21 -19 -20 -20 -37 19 -10 23 -15 26 -30 18 -13 -7 -23 -6 -30 1
-9 9 -12 9 -12 0 0 -16 -27 -15 -33 1 -3 9 -8 9 -21 -2 -22 -19 -29 -10 -16
23 5 15 10 34 10 41 0 21 -27 7 -33 -16 -7 -25 -27 -25 -34 0 -7 26 -63 52
-125 57 -58 5 -78 14 -29 14 21 0 30 4 25 11 -3 6 -17 9 -30 6 -13 -2 -24 0
-24 4 0 5 15 9 34 9 19 0 38 5 42 11 5 8 -3 10 -27 6 -19 -3 -80 -9 -136 -13
l-101 -6 -16 53 c-9 29 -16 59 -16 66 0 8 -4 11 -10 8 -7 -4 -10 -2023 -10
-6026 l0 -6019 4815 0 4815 0 -1 5378 c-2 4453 -4 5350 -15 5222 -7 -85 -17
-379 -23 -652 -7 -301 -16 -507 -22 -521 l-10 -23 -381 1 -381 0 7 390 c17
928 24 1135 39 1158 9 14 45 32 98 51 46 15 216 80 377 142 160 63 297 114
302 114 7 0 10 265 10 770 l0 770 -435 0 c-239 -1 -435 -4 -435 -9 0 -4 -11
-14 -24 -21 -32 -16 -39 -36 -23 -61 10 -16 9 -21 -3 -29 -21 -14 -40 -12 -41
3 -4 42 -18 77 -31 77 -6 0 -8 -13 -4 -33 3 -18 1 -68 -5 -112 -6 -44 -12 -96
-14 -115 -1 -19 -8 -36 -15 -38 -9 -3 -11 1 -7 12 4 10 -3 32 -17 54 -13 20
-27 54 -30 75 -6 33 -10 37 -36 37 -20 0 -30 -5 -30 -15 0 -8 -5 -15 -10 -15
-6 0 -13 7 -16 15 -9 22 -38 19 -93 -10 -38 -19 -57 -23 -87 -18 -37 6 -38 6
-21 -11 23 -23 22 -29 -6 -22 -14 3 -42 -4 -72 -19 -28 -13 -46 -25 -41 -25
19 0 -18 -30 -38 -30 -15 0 -17 -3 -7 -9 9 -6 10 -10 2 -16 -7 -4 -18 -2 -25
4 -11 9 -15 6 -20 -14 -4 -14 -11 -23 -16 -20 -5 3 -12 0 -16 -6 -4 -8 -9 -7
-15 2 -8 12 -11 12 -18 -1 -7 -9 -6 -19 2 -29 10 -12 8 -13 -15 -7 -16 3 -28
3 -28 -2 0 -10 -65 -42 -85 -42 -8 0 -18 -6 -22 -12 -13 -21 -51 -39 -58 -28
-4 6 -22 2 -45 -10 -22 -11 -43 -19 -47 -18 -5 0 -16 -2 -26 -7 -9 -4 -26 -5
-37 -2 -11 3 -20 2 -20 -2 0 -3 -19 -7 -42 -7 -24 0 -96 -2 -160 -4 -109 -5
-135 -10 -108 -23 6 -3 5 -4 -2 -3 -7 2 -34 -3 -60 -10 -43 -11 -48 -10 -49 4
0 11 -4 8 -10 -7 -6 -15 -9 -126 -7 -268 3 -201 6 -245 18 -253 8 -5 17 -6 20
-2 3 4 22 7 43 8 30 0 37 -3 37 -19 0 -16 6 -19 40 -15 22 2 40 0 40 -4 0 -5
18 -8 40 -8 30 0 40 4 40 16 0 17 33 12 59 -10 8 -6 23 -10 33 -8 13 2 21 -4
25 -17 7 -27 21 -27 33 2 5 12 9 16 9 10 1 -23 41 -54 64 -51 18 2 22 -1 19
-21 -1 -15 5 -29 19 -39 18 -12 20 -21 14 -58 -4 -30 -3 -44 5 -44 6 0 8 -5 5
-10 -4 -6 -15 -8 -26 -5 -13 4 -19 2 -19 -8 0 -9 5 -17 12 -19 8 -3 8 -9 0
-24 -11 -18 -11 -18 -12 4 0 12 -2 22 -5 22 -20 0 -71 -38 -116 -85 -28 -30
-60 -55 -69 -55 -9 0 -42 -8 -73 -19 -46 -15 -57 -16 -59 -4 -2 11 -8 10 -28
-4 -16 -11 -41 -17 -70 -16 -80 3 -82 -2 -88 -197 -3 -94 -6 -169 -8 -167 -2
1 -10 250 -18 552 -26 911 -37 1282 -42 1330 -1 17 -3 38 -3 48 -1 15 -12 17
-96 17 l-95 0 0 -36 c0 -28 3 -35 15 -30 8 3 15 1 15 -4 0 -6 -6 -10 -14 -10
-19 0 -24 -36 -23 -148 2 -83 -4 -113 -16 -79 -3 10 -1 -11 6 -47 1 -4 -4 -11
-11 -13 -8 -3 -12 8 -12 38 0 60 -9 43 -15 -27 -2 -32 -5 -61 -5 -64 0 -3 -8
8 -17 25 -15 27 -17 28 -24 10 -4 -11 -8 -29 -8 -40 -1 -20 -49 -55 -75 -55
-23 0 -6 47 22 61 l27 13 -35 5 -35 6 23 20 c24 21 29 45 9 45 -9 0 -12 12 -9
38 2 27 1 33 -7 22 -9 -13 -11 -13 -15 0 -16 47 -35 133 -41 184 -4 33 -9 65
-12 73 -4 11 -211 13 -1209 13 l-1204 0 0 -32 c0 -18 7 -118 15 -223 16 -210
18 -326 5 -285 -4 14 -8 40 -9 58 -1 17 -6 32 -11 32 -13 0 -12 -118 1 -265 6
-60 12 -141 14 -180 18 -287 36 -479 47 -492 6 -7 16 -13 23 -13 14 0 18 -29
40 -305 18 -226 19 -212 -7 -218 -20 -6 -21 -10 -14 -94 3 -48 3 -83 -2 -78
-8 9 -30 242 -153 1630 -23 253 -43 462 -45 464 -2 2 -5 2 -7 0 -2 -2 11 -184
29 -404 18 -220 40 -492 48 -605 18 -228 21 -261 36 -440 39 -487 51 -728 25
-540 -7 57 -21 81 -34 61 -13 -21 -18 3 -35 184 -22 225 -30 393 -17 375 17
-23 27 1 25 57 -3 102 -16 233 -24 238 -4 3 -8 39 -9 81 -1 42 -4 80 -6 84 -3
4 -7 50 -10 101 -6 121 -29 298 -36 279 -3 -8 -2 -53 1 -100 6 -83 5 -98 -5
-88 -10 10 -60 441 -72 626 l-6 92 -910 0 -910 0 5 -57 c3 -32 3 -50 1 -40 -3
9 -9 17 -14 17 -5 0 -9 18 -9 40 0 53 -18 51 -23 -2 l-4 -43 -1 43 c-3 66 -22
50 -22 -19 0 -33 -4 -58 -9 -55 -5 3 -8 17 -8 32 0 14 -6 31 -12 37 -15 15 -4
-92 15 -143 l13 -35 0 49 c1 60 9 57 12 -4 1 -25 6 -49 10 -55 9 -12 8 -85 -2
-85 -3 0 -9 19 -13 41 -10 61 -19 40 -11 -23 5 -29 10 -47 12 -40 9 25 23 11
23 -25 0 -21 4 -44 9 -52 5 -8 7 25 5 78 -3 58 -1 91 6 91 5 0 10 -6 10 -12 1
-7 3 -59 6 -115 4 -72 3 -103 -5 -103 -6 0 -11 8 -11 18 0 14 -2 15 -10 2 -7
-11 -3 -19 15 -30 14 -8 25 -23 25 -32 0 -21 -11 -23 -28 -6 -9 9 -15 9 -24 0
-9 -9 -9 -17 1 -36 8 -13 11 -39 8 -58 -2 -18 0 -42 6 -53 6 -11 12 -69 12
-130 1 -60 -1 -103 -3 -95 -3 8 -9 18 -14 21 -5 3 -9 37 -9 75 0 38 -8 92 -18
119 -10 30 -14 64 -11 85 3 19 0 57 -7 85 -7 27 -13 62 -13 77 0 15 -5 30 -11
34 -6 3 -9 20 -6 38 2 17 1 60 -4 96 -5 36 -10 85 -12 110 -1 25 -6 43 -11 42
-15 -6 -26 22 -26 71 0 26 -4 47 -10 47 -6 0 -10 -27 -10 -61 0 -37 -4 -58
-10 -54 -5 3 -10 19 -10 35 0 50 -17 42 -26 -13 -7 -45 -8 -48 -12 -19 -2 17
-7 32 -13 32 -13 0 -11 -78 3 -82 7 -3 9 -11 3 -24 -6 -16 -10 -10 -22 30 -15
47 -25 51 -37 11 -3 -11 -3 -1 -1 23 4 33 2 42 -10 42 -11 0 -15 11 -15 40 0
26 -5 40 -13 40 -9 0 -13 -22 -14 -80 -2 -69 0 -80 15 -80 15 0 15 -2 2 -10
-12 -7 -13 -13 -3 -28 9 -15 9 -22 0 -31 -8 -8 -5 -11 11 -11 12 0 22 -4 22
-10 0 -5 -7 -10 -16 -10 -13 0 -15 -13 -10 -92 6 -123 -2 -208 -21 -208 -11 0
-14 11 -12 47 2 30 -1 48 -9 51 -17 5 -15 39 3 45 11 5 12 12 4 36 -6 16 -14
60 -17 98 -4 40 -11 66 -17 63 -12 -6 -7 -93 6 -100 9 -6 3 -209 -6 -218 -3
-3 -5 4 -5 15 0 11 -7 34 -15 49 -8 16 -15 39 -15 52 0 12 -5 22 -11 22 -6 0
-8 -8 -5 -17 3 -10 8 -48 11 -84 3 -36 9 -97 14 -135 5 -38 6 -73 3 -79 -7
-11 -32 121 -36 191 -4 66 -13 82 -33 55 -8 -13 -13 -36 -10 -59 l4 -37 1 43
c1 23 6 42 11 42 11 0 34 -223 29 -280 -4 -39 -5 -37 -6 18 -2 61 -15 81 -27
42 -3 -11 -11 -20 -16 -20 -6 0 -5 -8 1 -20 6 -11 8 -24 5 -29 -9 -16 -13
-191 -4 -191 14 0 10 -26 -6 -40 -13 -11 -15 -8 -15 14 0 14 -4 26 -10 26 -5
0 -10 -18 -10 -40 0 -33 3 -40 20 -40 11 0 20 -4 20 -10 0 -5 -7 -7 -15 -4
-10 4 -15 0 -15 -11 0 -11 5 -15 15 -11 23 8 32 -24 11 -39 -9 -7 -21 -26 -26
-42 l-8 -28 -1 26 c-1 36 -21 89 -33 89 -6 0 -8 -16 -4 -43 4 -24 2 -54 -3
-68 l-10 -24 0 27 c-1 15 -7 31 -15 35 -10 6 -12 19 -7 54 4 25 5 53 1 63 -5
15 -7 15 -25 2 -22 -17 -55 -21 -55 -7 0 5 10 13 21 16 18 6 20 12 15 44 -3
20 -6 48 -6 64 0 20 -5 27 -19 27 -10 0 -21 -9 -24 -20 -7 -29 -27 -25 -27 6
0 14 -5 34 -11 45 -5 11 -12 41 -15 67 -4 42 -17 101 -32 142 -3 8 -5 30 -5
48 -1 17 -5 32 -9 32 -5 0 -6 16 -2 36 7 36 -8 98 -32 139 -6 11 -14 45 -18
77 -3 31 -8 63 -12 71 -3 8 2 22 11 31 16 15 12 41 -4 31 -12 -7 -21 46 -21
116 l0 59 -104 0 c-94 0 -104 -2 -100 -17z m1061 -105 c-3 -8 -6 -5 -6 6 -1
11 2 17 5 13 3 -3 4 -12 1 -19z m-128 -75 c1 -7 -3 -13 -9 -13 -5 0 -10 17 -9
38 1 33 2 34 9 12 4 -14 8 -31 9 -37z m6666 47 c3 -5 1 -10 -4 -10 -6 0 -11 5
-11 10 0 6 2 10 4 10 3 0 8 -4 11 -10z m-6648 -32 c-3 -8 -6 -5 -6 6 -1 11 2
17 5 13 3 -3 4 -12 1 -19z m123 -3 c0 -14 -4 -25 -9 -25 -5 0 -8 11 -7 25 1
33 16 33 16 0z m117 -37 c-2 -13 -4 -3 -4 22 0 25 2 35 4 23 2 -13 2 -33 0
-45z m-305 -19 c6 -4 7 -13 3 -20 -11 -16 -24 14 -23 51 l1 25 4 -25 c3 -14
10 -28 15 -31z m228 41 c0 -5 -2 -10 -4 -10 -3 0 -8 5 -11 10 -3 6 -1 10 4 10
6 0 11 -4 11 -10z m-170 -87 c0 -25 -3 -43 -7 -39 -10 10 -11 86 -1 86 4 0 8
-21 8 -47z m-78 -115 c-4 -4 -8 23 -9 60 l-1 67 9 -60 c5 -32 5 -63 1 -67z
m28 76 c0 -13 -4 -24 -10 -24 -5 0 -10 14 -10 31 0 17 4 28 10 24 6 -3 10 -17
10 -31z m20 -114 c0 -22 -4 -40 -9 -40 -5 0 -12 -10 -16 -22 -6 -21 -7 -20
-16 10 -6 19 -8 41 -6 50 3 10 5 4 6 -11 1 -40 21 -23 21 19 0 19 5 34 10 34
6 0 10 -18 10 -40z m50 17 c0 -13 3 -27 7 -30 10 -10 11 -107 1 -107 -4 0 -8
18 -8 40 0 22 -4 40 -10 40 -5 0 -10 18 -10 40 0 22 5 40 10 40 6 0 10 -10 10
-23z m4723 -67 c-13 -10 -23 -23 -23 -29 0 -6 -4 -11 -10 -11 -20 0 -9 29 17
48 34 25 47 18 16 -8z m-4798 -49 c3 -5 1 -12 -5 -16 -5 -3 -10 1 -10 9 0 18
6 21 15 7z m264 -33 c1 -5 -3 -8 -9 -8 -5 0 -10 12 -9 28 0 24 1 25 9 7 5 -11
9 -23 9 -27z m-349 0 c0 -5 -4 -8 -10 -8 -5 0 -10 10 -10 23 0 18 2 19 10 7 5
-8 10 -18 10 -22z m4835 22 c3 -5 -1 -10 -10 -10 -9 0 -13 5 -10 10 3 6 8 10
10 10 2 0 7 -4 10 -10z m-4938 -32 c-3 -8 -6 -5 -6 6 -1 11 2 17 5 13 3 -3 4
-12 1 -19z m410 -50 c-3 -8 -6 -5 -6 6 -1 11 2 17 5 13 3 -3 4 -12 1 -19z m40
0 c-3 -8 -6 -5 -6 6 -1 11 2 17 5 13 3 -3 4 -12 1 -19z m-857 -23 c0 -8 -2
-15 -4 -15 -2 0 -6 7 -10 15 -3 8 -1 15 4 15 6 0 10 -7 10 -15z m490 -64 c0
-21 2 -67 5 -102 4 -55 3 -58 -5 -24 -5 22 -9 59 -9 82 -1 23 -6 43 -13 45
-14 5 -4 38 12 38 5 0 10 -17 10 -39z m-103 -146 c-1 -12 -8 1 -14 30 -6 27
-9 54 -5 60 8 12 24 -62 19 -90z m460 3 c-2 -13 -4 -3 -4 22 0 25 2 35 4 23 2
-13 2 -33 0 -45z m-2062 -38 c-3 -5 -11 -10 -16 -10 -6 0 -7 5 -4 10 3 6 11
10 16 10 6 0 7 -4 4 -10z m3945 6 c0 -3 -4 -8 -10 -11 -5 -3 -10 -1 -10 4 0 6
5 11 10 11 6 0 10 -2 10 -4z m-2330 -31 c0 -8 -4 -15 -10 -15 -5 0 -10 7 -10
15 0 8 5 15 10 15 6 0 10 -7 10 -15z m-1451 -79 c-14 -15 -22 0 -13 26 7 22 7
22 14 3 4 -11 4 -24 -1 -29z m1151 28 c0 -8 -4 -12 -10 -9 -5 3 -10 10 -10 16
0 5 5 9 10 9 6 0 10 -7 10 -16z m-920 -74 c0 -5 -4 -10 -10 -10 -5 0 -10 5
-10 10 0 6 5 10 10 10 6 0 10 -4 10 -10z m1237 -62 c-3 -8 -6 -5 -6 6 -1 11 2
17 5 13 3 -3 4 -12 1 -19z m-1097 -58 c0 -5 -5 -10 -11 -10 -5 0 -7 5 -4 10 3
6 8 10 11 10 2 0 4 -4 4 -10z m50 -50 c0 -22 -25 -18 -34 6 -3 9 1 14 14 14
13 0 20 -7 20 -20z m947 -27 c-3 -10 -5 -2 -5 17 0 19 2 27 5 18 2 -10 2 -26
0 -35z m6852 -48 c-3 -128 -19 -133 -19 -6 0 63 4 101 10 101 7 0 10 -35 9
-95z m-6949 55 c0 -5 -2 -10 -4 -10 -3 0 -8 5 -11 10 -3 6 -1 10 4 10 6 0 11
-4 11 -10z m110 -50 c0 -5 -2 -10 -4 -10 -3 0 -8 5 -11 10 -3 6 -1 10 4 10 6
0 11 -4 11 -10z m-820 -135 c0 -8 -7 -15 -15 -15 -8 0 -15 7 -15 15 0 8 7 15
15 15 8 0 15 -7 15 -15z m3412 -720 c3 -14 1 -28 -3 -31 -5 -3 -9 9 -9 25 0
38 6 40 12 6z m3843 -5 c-8 -14 8 -13 22 1 13 13 36 2 27 -12 -3 -5 0 -16 6
-24 6 -8 9 -23 5 -35 -4 -12 -2 -20 5 -20 8 0 10 -15 6 -47 -9 -82 -21 -113
-41 -113 -20 0 -28 -37 -26 -113 2 -57 0 -68 -16 -73 -10 -3 -26 -10 -36 -15
-11 -6 -40 -5 -82 2 -53 9 -65 15 -65 30 0 12 -7 19 -19 19 -21 0 -45 25 -47
49 -1 9 -2 30 -3 46 -1 21 -4 26 -10 16 -12 -19 -31 -5 -31 23 0 13 -7 40 -15
61 -13 29 -14 44 -5 71 6 18 8 39 4 45 -4 8 -3 9 4 5 11 -6 41 6 73 31 8 7 51
19 95 27 43 8 75 15 69 16 -14 3 36 18 63 19 13 1 20 -3 17 -9z m-5245 -19 c0
-12 -71 -71 -85 -71 -5 0 -18 -18 -27 -40 -9 -22 -12 -40 -7 -40 5 0 13 8 16
17 8 21 40 53 46 47 20 -20 -65 -127 -114 -146 -21 -8 -25 2 -7 20 9 9 9 15 0
24 -9 9 -16 7 -32 -10 -19 -20 -40 -29 -40 -17 0 3 15 20 34 38 18 17 39 42
45 55 7 12 16 20 20 18 4 -3 14 6 21 19 7 14 20 25 27 25 7 0 16 8 20 18 11
30 35 52 60 52 12 0 23 -4 23 -9z m1006 -277 c114 -50 160 -106 199 -239 9
-33 19 -73 20 -90 6 -52 30 -136 38 -129 4 4 7 -7 7 -24 0 -40 -11 -46 -56
-27 -20 8 -45 15 -56 15 -12 0 -23 11 -29 29 -9 26 -17 30 -67 39 -34 6 -61 7
-67 1 -14 -14 -37 -11 -50 8 -9 12 -31 17 -86 19 -86 4 -113 8 -152 23 -16 6
-39 11 -53 11 -13 0 -24 4 -24 8 0 4 -16 14 -35 21 -24 8 -35 19 -35 32 0 10
6 19 13 19 7 0 18 9 25 20 6 11 28 27 48 35 45 19 153 127 185 186 41 74 83
84 175 43z m-1055 -37 c-10 -9 -11 -8 -5 6 3 10 9 15 12 12 3 -3 0 -11 -7 -18z
m-81 -12 c-7 -9 -15 -13 -17 -11 -7 7 7 26 19 26 6 0 6 -6 -2 -15z m5340 -155
c0 -5 -2 -10 -4 -10 -3 0 -8 5 -11 10 -3 6 -1 10 4 10 6 0 11 -4 11 -10z
m-4600 -307 c4 -4 10 -22 13 -40 5 -28 2 -34 -26 -52 -27 -18 -34 -19 -43 -6
-7 10 -14 11 -21 4 -19 -19 -58 -6 -61 20 -6 38 7 71 31 81 24 11 95 6 107 -7z
m4550 -93 c0 -5 -9 -10 -20 -10 -11 0 -20 5 -20 10 0 6 9 10 20 10 11 0 20 -4
20 -10z m-4232 -17 c5 -10 13 -36 16 -58 8 -45 47 -165 66 -208 8 -17 33 -37
66 -53 62 -30 101 -27 140 12 13 14 29 22 34 19 6 -4 10 -66 9 -153 0 -81 -3
-140 -7 -131 -5 11 -16 15 -34 13 -17 -1 -28 2 -28 9 0 7 -14 23 -32 37 -42
33 -108 100 -108 109 0 10 -73 7 -89 -3 -7 -4 -18 -2 -26 4 -12 10 -15 10 -15
1 0 -8 -7 -6 -17 4 -13 13 -27 16 -61 11 -45 -6 -122 -43 -122 -58 0 -10 43
-29 107 -49 36 -12 40 -16 41 -48 1 -19 6 -39 12 -45 17 -17 11 -44 -11 -51
-11 -4 -74 -4 -140 0 -116 6 -164 2 -154 -14 2 -4 -4 -17 -14 -28 -16 -17 -17
-24 -7 -44 8 -17 19 -23 37 -22 74 8 250 9 254 2 3 -4 -8 -7 -25 -7 -45 1 -47
-9 -6 -28 35 -17 52 -42 20 -30 -8 3 -29 -1 -45 -10 -35 -18 -99 -83 -99 -101
0 -16 76 -36 96 -25 27 15 75 2 85 -25 5 -13 13 -22 18 -19 5 3 16 -5 25 -19
9 -14 23 -25 31 -25 8 0 15 -4 15 -10 0 -5 -6 -10 -12 -10 -7 0 -23 -3 -35 -6
-17 -5 -23 -2 -23 10 0 20 4 21 -84 -8 -40 -14 -95 -28 -120 -31 -25 -4 -46
-11 -46 -16 0 -13 -90 -1 -129 19 -21 10 -48 37 -68 68 l-32 52 26 27 c22 22
25 28 13 36 -8 5 -22 9 -30 9 -12 0 -13 2 -1 9 18 12 5 32 -17 25 -14 -5 -15
-4 -2 5 8 5 11 13 7 17 -4 4 -13 2 -19 -4 -15 -15 -51 -15 -66 0 -8 8 -15 8
-24 0 -10 -8 -25 0 -63 34 -28 24 -55 42 -62 40 -17 -7 -21 26 -6 50 13 20 12
21 -14 18 -24 -4 -25 -3 -8 5 19 10 19 10 -4 17 -13 4 -29 21 -37 38 -7 17
-13 25 -14 19 0 -7 -4 -13 -9 -13 -13 0 -24 51 -13 62 14 14 42 -2 42 -23 0
-24 34 -25 59 -1 24 24 30 157 6 165 -8 4 -15 14 -15 23 0 15 -22 62 -44 92
-6 8 -11 42 -12 75 -1 54 2 68 31 112 66 101 143 149 176 109 6 -8 19 -14 28
-14 10 0 46 -28 82 -63 80 -79 109 -91 201 -85 l71 6 64 68 c35 38 76 81 89
97 29 31 69 36 82 10z m470 -116 c3 -13 -4 -17 -25 -17 -15 0 -41 -7 -56 -15
-27 -14 -28 -14 -25 7 2 16 14 26 43 34 48 15 59 13 63 -9z m163 3 c37 0 71 5
74 10 3 6 46 10 96 10 53 0 89 -4 89 -10 0 -5 16 -10 35 -10 19 0 35 5 35 10
0 7 34 8 98 4 101 -7 142 -17 142 -33 0 -16 -38 -23 -60 -11 -14 7 -117 11
-315 10 -162 0 -295 2 -295 4 0 2 3 12 6 21 5 12 10 13 17 6 6 -6 41 -11 78
-11z m3594 -130 c-3 -5 -10 -10 -16 -10 -5 0 -9 5 -9 10 0 6 7 10 16 10 8 0
12 -4 9 -10z m-4079 -340 c6 -14 9 -31 8 -37 -1 -7 -2 -21 -3 -32 -1 -17 -9
-19 -69 -17 -37 1 -73 6 -80 10 -16 10 -15 26 2 26 7 0 21 11 30 24 8 14 24
27 34 30 11 4 24 18 31 33 11 25 13 25 24 7 7 -10 17 -30 23 -44z m749 -180
c3 -5 13 -10 20 -10 17 0 128 -69 134 -82 1 -5 19 -19 40 -32 70 -45 207 -174
225 -212 11 -22 25 -51 32 -65 7 -14 22 -61 34 -105 12 -43 37 -116 57 -162
19 -46 33 -86 29 -89 -3 -3 -9 2 -12 11 -5 14 -9 15 -15 4 -7 -10 -9 -9 -9 5
0 10 -4 15 -10 12 -6 -3 -7 1 -4 9 4 10 1 16 -7 16 -10 0 -14 16 -16 56 -1 55
-18 114 -33 114 -12 0 -23 41 -21 80 2 56 -9 65 -91 67 -40 1 -76 2 -79 2 -3
1 -23 28 -43 61 -21 33 -40 60 -44 60 -4 0 -13 13 -20 30 -14 32 -106 84 -168
96 -19 3 -34 10 -34 15 0 4 -12 14 -27 21 -52 26 -26 107 34 108 12 0 25 -4
28 -10z m-849 -15 c-8 -8 -19 -15 -25 -15 -6 0 -11 7 -11 15 0 9 10 15 26 15
23 0 24 -2 10 -15z m98 -79 c-10 -27 -24 -18 -24 15 0 27 2 29 15 15 8 -8 12
-22 9 -30z m-1164 -186 c0 -16 -4 -30 -10 -30 -5 0 -10 6 -10 14 0 8 -3 21 -6
30 -4 11 -1 16 10 16 11 0 16 -9 16 -30z m-65 -1 c-5 -15 -4 -19 4 -15 6 4 11
2 11 -3 0 -6 -8 -11 -17 -11 -20 0 -95 -77 -120 -122 -26 -48 -23 -200 4 -293
47 -155 68 -216 122 -355 32 -80 63 -165 70 -190 22 -76 30 -90 51 -90 32 0
52 -44 71 -163 23 -140 25 -358 4 -620 -24 -299 -83 -677 -132 -837 -14 -48
-17 -122 -19 -549 -3 -477 -4 -498 -28 -630 -14 -75 -30 -174 -36 -221 -14
-107 -34 -504 -34 -670 1 -178 38 -375 77 -403 8 -6 6 -7 -5 -3 -10 3 -18 1
-18 -4 0 -6 5 -10 11 -10 6 0 9 -6 6 -14 -3 -8 -1 -58 4 -113 5 -54 10 -165
10 -246 1 -132 -2 -155 -22 -205 -46 -117 -162 -293 -257 -394 -59 -62 -73
-70 -64 -36 5 21 5 21 -14 2 -10 -11 -27 -32 -37 -47 -37 -57 -87 -13 -87 78
0 53 -35 128 -144 308 -39 66 -81 139 -93 163 -14 26 -30 44 -40 44 -9 0 -62
-18 -117 -39 -119 -46 -203 -71 -210 -63 -3 3 -6 26 -6 51 0 25 -7 81 -15 124
-34 178 1 337 74 337 9 0 31 9 50 21 22 13 53 21 93 22 58 2 77 13 78 46 0 15
-36 9 -82 -13 -14 -8 -37 -12 -50 -9 -15 3 -29 -2 -37 -11 -8 -9 -17 -16 -22
-16 -5 0 -33 -11 -63 -25 -30 -14 -62 -25 -70 -25 -9 0 -16 -4 -16 -10 0 -5
-10 -10 -22 -10 -13 0 -32 -7 -42 -15 -11 -8 -27 -15 -37 -15 -21 0 -77 63
-83 93 -2 12 -9 55 -15 96 -11 74 -25 106 -42 96 -15 -10 -28 28 -17 50 16 30
28 35 92 35 l59 0 -7 32 c-3 17 -25 52 -49 77 -67 72 -84 117 -102 276 -8 77
-24 176 -35 220 -10 44 -21 102 -23 128 -4 43 -2 49 19 57 35 14 48 46 34 81
-20 48 1 82 68 113 61 27 55 32 -18 15 -53 -12 -150 -68 -150 -86 0 -7 -5 -13
-11 -13 -8 0 -9 13 -4 43 4 23 8 54 10 70 1 15 3 32 4 37 0 6 12 10 26 10 14
0 40 8 58 18 l32 17 -81 0 c-93 0 -114 11 -114 60 0 18 -9 53 -20 78 -27 60
-39 128 -28 157 l8 23 25 -23 c13 -12 23 -27 22 -33 -1 -6 12 -20 30 -31 18
-12 32 -26 33 -32 0 -7 26 -11 72 -11 l71 0 -29 21 c-16 11 -51 42 -78 68 -26
27 -56 48 -65 48 -9 0 -27 7 -39 16 -20 14 -22 14 -22 -3 0 -10 -4 -14 -8 -8
-4 6 -14 10 -22 10 -8 0 -15 7 -15 15 0 8 -6 32 -14 53 -11 32 -11 89 0 335 6
163 12 304 13 313 0 10 6 15 14 12 7 -3 11 -12 7 -21 -8 -22 6 -113 17 -106 5
3 12 -3 15 -15 3 -12 9 -21 14 -21 5 0 9 -7 9 -15 0 -9 9 -15 21 -15 20 0 21
4 15 38 -4 20 -7 54 -6 74 1 37 -28 143 -37 134 -3 -3 -12 1 -20 9 -8 8 -25
15 -37 15 -22 0 -23 1 -26 168 -5 318 1 907 11 997 17 153 56 316 86 360 7 11
18 36 23 56 18 64 103 145 299 284 108 77 264 165 291 165 6 0 32 9 58 21 74
33 220 99 297 134 39 17 93 38 120 45 28 7 75 24 107 37 56 25 56 25 83 100
64 180 126 268 222 317 26 13 49 24 51 25 2 1 0 -9 -3 -20z m4 -102 c-1 -7 1
-23 5 -37 3 -14 8 -38 10 -55 5 -51 18 -95 27 -95 5 0 9 -9 9 -19 0 -11 6 -26
13 -33 6 -7 13 -44 15 -83 2 -38 7 -74 13 -79 5 -6 9 -19 9 -31 0 -11 6 -29
14 -40 7 -11 16 -32 20 -47 3 -15 14 -34 23 -43 9 -10 18 -34 20 -54 2 -20 6
-43 10 -51 3 -8 7 -19 7 -23 1 -4 8 -12 16 -17 21 -13 -31 -11 -94 3 -34 8
-50 17 -52 30 -1 10 -12 36 -24 59 -52 100 -74 184 -94 348 -2 19 5 89 15 155
10 66 19 124 19 128 0 5 5 5 10 2 6 -4 10 -12 9 -18z m136 -26 c8 -36 30 -58
40 -40 4 6 1 15 -6 20 -7 4 -10 12 -5 16 5 4 11 2 13 -4 3 -7 11 -13 18 -13 7
0 16 -7 19 -16 5 -14 16 -16 57 -11 45 6 52 4 56 -13 3 -11 11 -20 18 -20 16
0 29 -51 26 -101 -1 -22 4 -41 14 -49 21 -17 19 -77 -3 -101 -14 -15 -26 -18
-51 -13 -17 4 -34 10 -36 14 -7 12 -55 -13 -55 -28 0 -15 -51 -5 -62 12 -15
22 -7 28 30 21 34 -6 35 -5 18 8 -11 8 -28 12 -39 9 -14 -4 -18 0 -15 15 1 10
-6 32 -16 47 -20 31 -24 102 -7 119 14 14 14 47 1 47 -5 0 -10 7 -10 15 0 8
-8 15 -19 15 -13 0 -20 9 -24 33 -5 37 -2 47 18 47 7 0 16 -13 20 -29z m1094
-55 c29 -30 63 -56 75 -59 11 -2 29 -8 39 -12 14 -6 17 -2 17 30 0 27 8 44 30
67 37 37 42 36 210 -27 421 -158 416 -156 523 -216 38 -22 71 -39 73 -39 2 0
15 18 30 39 25 39 64 53 64 24 0 -7 6 -13 14 -13 7 0 25 -11 40 -25 22 -20 37
-25 81 -25 39 0 53 -3 50 -12 -3 -7 2 -24 10 -38 8 -14 26 -47 39 -74 l25 -50
-26 -23 c-14 -13 -27 -22 -30 -19 -3 3 -29 -6 -59 -19 -29 -13 -62 -21 -74
-18 -20 5 -21 3 -15 -50 5 -41 3 -57 -7 -64 -7 -4 -18 -17 -24 -28 -14 -23
-72 -24 -105 -2 -14 10 -39 13 -87 10 -58 -4 -73 -1 -115 21 -26 14 -61 26
-76 26 -15 0 -54 9 -86 19 -32 11 -63 17 -70 15 -6 -3 -33 4 -59 16 -26 11
-72 23 -102 26 -33 4 -60 14 -70 25 -9 10 -19 17 -23 15 -16 -10 -131 -15
-131 -6 0 5 5 10 10 10 26 0 6 20 -25 26 -36 6 -58 -1 -39 -14 6 -4 13 -14 16
-23 4 -9 32 -25 62 -34 54 -17 56 -19 56 -52 0 -88 42 -123 148 -123 52 0 54
-1 47 -22 -12 -36 -9 -76 6 -94 19 -23 79 -47 169 -68 104 -25 119 -32 130
-61 5 -14 22 -37 36 -50 l26 -25 -26 -10 c-15 -5 -33 -10 -39 -10 -19 -1 43
-47 87 -65 28 -11 61 -41 104 -90 34 -41 62 -79 62 -84 0 -20 40 -31 114 -31
85 0 179 29 196 61 6 10 16 19 23 19 7 0 18 9 25 20 7 11 19 20 27 20 8 0 15
5 15 10 0 6 10 20 23 32 12 13 37 40 55 62 l34 40 -23 17 -22 17 20 38 c12 24
19 56 18 82 l-2 42 39 0 c76 0 116 -41 132 -133 4 -22 33 -94 65 -162 52 -108
62 -123 91 -134 18 -6 45 -11 59 -11 34 0 91 -60 164 -170 31 -47 64 -95 73
-107 11 -15 14 -32 10 -49 -6 -23 -8 -25 -19 -10 -11 15 -17 14 -70 -8 -31
-12 -65 -30 -75 -39 -10 -10 -26 -17 -35 -17 -9 0 -19 -4 -22 -10 -3 -5 -15
-10 -27 -10 -11 0 -32 -9 -47 -20 -30 -20 -74 -34 -182 -54 -36 -7 -71 -16
-76 -19 -6 -4 -55 -13 -109 -21 -86 -13 -109 -13 -179 -1 -44 8 -81 15 -82 15
-2 0 -3 -9 -3 -19 0 -11 12 -29 26 -40 14 -11 24 -26 23 -33 -4 -29 3 -37 39
-49 20 -7 40 -13 44 -14 3 0 10 -3 14 -7 4 -5 16 -8 26 -8 10 0 18 -4 18 -10
0 -31 160 -65 176 -37 5 8 23 18 39 24 39 12 47 43 11 43 -28 0 -30 3 -40 43
-6 24 -3 27 18 27 13 0 29 7 36 15 7 8 18 15 24 15 6 0 24 7 40 15 35 18 55 6
31 -19 -15 -14 -14 -18 9 -41 l25 -25 38 22 c21 12 40 26 42 31 2 5 30 26 64
48 33 21 66 48 74 59 17 25 93 65 93 50 0 -6 4 -9 9 -5 5 3 24 -12 41 -32 22
-27 47 -85 87 -203 30 -91 61 -172 69 -180 20 -23 50 -132 68 -245 12 -78 14
-149 10 -320 -6 -231 -16 -315 -40 -315 -8 0 -14 6 -15 13 0 9 -2 9 -6 0 -6
-16 -63 -17 -63 -2 0 6 5 19 10 30 8 13 7 19 0 19 -13 0 -7 24 21 87 11 23 19
48 19 56 0 8 8 25 19 38 10 13 16 30 14 37 -7 18 -42 -24 -49 -57 -3 -14 -9
-39 -13 -56 l-8 -30 -12 30 c-7 16 -23 44 -37 62 -31 41 -31 91 0 208 25 92
42 240 26 230 -12 -7 -33 -103 -26 -120 3 -8 1 -17 -4 -20 -6 -4 -10 -19 -10
-35 0 -16 -5 -32 -11 -35 -6 -4 -8 -14 -4 -22 9 -25 -4 -53 -22 -46 -14 6 -15
0 -10 -40 6 -41 4 -48 -20 -66 -34 -28 -40 -26 -35 8 3 19 -1 30 -12 34 -9 4
-16 2 -16 -4 0 -12 -61 -39 -72 -33 -5 3 -8 1 -8 -4 0 -6 -9 -8 -19 -5 -11 3
-34 -2 -52 -11 -40 -20 -42 -20 -34 3 4 13 0 23 -11 29 -16 9 -15 12 10 36 17
15 26 32 22 41 -6 16 -41 21 -50 6 -10 -15 -56 -19 -89 -7 -43 16 -91 39 -97
47 -11 13 -75 29 -78 19 -5 -14 -35 -13 -51 3 -11 9 -14 9 -18 0 -3 -8 -14 -2
-30 17 -13 17 -29 30 -34 30 -16 0 -10 -26 11 -45 11 -10 20 -24 20 -30 0 -7
16 -30 35 -51 31 -34 40 -53 36 -77 -2 -13 20 -49 26 -43 9 8 43 -60 45 -91 2
-14 11 -31 20 -37 10 -6 18 -16 18 -21 0 -6 13 -19 29 -28 17 -10 33 -26 36
-37 4 -11 12 -20 19 -20 7 0 23 -11 36 -25 13 -14 29 -24 34 -22 17 6 33 -16
28 -35 -5 -22 -22 -24 -22 -3 0 9 -9 15 -24 15 -34 0 -56 10 -56 26 0 8 -6 11
-15 8 -10 -4 -18 3 -25 20 -5 15 -20 30 -32 35 -13 5 -32 18 -42 30 -11 11
-27 21 -36 21 -9 0 -36 18 -60 40 -68 63 -98 47 -40 -20 16 -19 29 -40 30 -45
0 -6 9 -18 20 -28 27 -22 25 -29 -10 -55 -38 -28 -51 -28 -81 4 -13 14 -55 47
-94 72 -38 26 -83 60 -99 76 l-28 29 6 111 c4 65 13 126 23 148 11 26 13 50 9
82 -14 93 -32 57 -41 -85 -7 -104 -15 -150 -26 -143 -5 3 -9 -6 -9 -21 0 -14
-7 -28 -15 -31 -21 -8 -45 14 -45 40 0 12 -6 30 -14 41 -7 11 -16 43 -20 70
-10 70 -17 95 -26 95 -14 0 -16 -133 -5 -278 6 -79 9 -163 5 -186 -7 -45 2
-86 19 -86 12 0 49 -94 60 -155 6 -27 17 -70 25 -94 11 -30 15 -74 14 -140 -2
-88 -2 -91 -7 -31 l-5 65 -6 -65 c-5 -64 -6 -64 -13 -25 -4 22 -19 96 -33 165
-13 69 -29 150 -35 180 -6 30 -15 62 -19 70 -12 22 -3 -82 10 -116 11 -28 31
-128 50 -259 5 -33 10 -94 11 -135 1 -41 4 -79 7 -84 6 -11 8 -37 17 -261 4
-93 11 -199 16 -235 5 -36 11 -116 14 -179 3 -87 8 -118 21 -132 13 -14 15
-28 9 -56 -9 -47 -25 -143 -26 -163 -1 -8 -6 -21 -11 -27 -6 -7 -8 -20 -4 -28
3 -8 2 -15 -3 -15 -20 0 -50 -97 -52 -170 -2 -68 -5 -78 -31 -105 -17 -17 -27
-37 -25 -47 5 -17 -13 -82 -26 -94 -4 -4 -7 -15 -7 -25 0 -9 -3 -19 -7 -21 -5
-2 -19 -15 -32 -31 l-24 -27 22 0 c23 0 55 29 102 94 26 35 111 90 123 79 2
-3 11 -1 18 3 7 5 36 9 63 9 36 0 49 4 47 13 -1 8 6 28 16 45 13 23 18 50 16
97 -1 46 3 70 14 83 10 11 11 17 4 17 -7 0 -12 5 -12 11 0 5 5 7 12 3 7 -5 9
-1 6 13 -3 11 0 41 6 67 l12 46 38 -82 c54 -117 58 -194 17 -355 -13 -52 -50
-123 -63 -123 -21 0 -77 -68 -89 -108 -8 -29 -35 -66 -80 -115 -45 -47 -82
-100 -109 -153 -22 -44 -49 -89 -59 -100 -26 -28 -70 -64 -77 -64 -3 0 -18 -8
-32 -18 -66 -46 -110 -34 -147 38 -24 47 -54 64 -47 27 1 -8 -2 -18 -7 -22 -6
-3 -10 11 -10 37 0 24 -13 84 -31 133 -49 144 -70 237 -90 409 -22 180 -52
334 -81 415 -32 86 -68 234 -100 406 -16 88 -38 185 -49 215 -65 191 -89 319
-100 547 -7 152 -13 194 -39 286 -17 59 -31 118 -31 131 0 13 -11 54 -25 90
-14 37 -31 108 -39 159 -8 51 -21 111 -29 133 -9 23 -21 77 -27 120 -7 44 -25
120 -41 169 -86 275 -126 449 -163 725 -14 102 -30 208 -36 235 -13 65 -63
426 -91 654 -5 46 -12 87 -15 92 -2 4 -5 63 -5 131 0 111 2 125 20 139 11 9
23 29 27 45 4 16 20 58 36 94 16 36 34 88 39 115 5 28 14 73 19 100 6 28 10
104 8 170 -4 167 6 177 91 91z m-1134 -16 c3 -5 1 -10 -4 -10 -6 0 -11 5 -11
10 0 6 2 10 4 10 3 0 8 -4 11 -10z m2512 -492 c-3 -8 -6 -5 -6 6 -1 11 2 17 5
13 3 -3 4 -12 1 -19z m-446 -178 c10 -6 19 -16 19 -22 0 -6 7 -19 15 -28 13
-15 12 -19 -13 -41 -32 -30 -102 -54 -133 -46 -13 3 -43 3 -68 0 -36 -5 -41
-8 -26 -15 14 -6 11 -6 -10 -2 -16 4 -46 8 -66 9 -57 4 -73 17 -75 64 -3 49
-5 48 141 54 55 3 118 11 140 20 51 19 53 19 76 7z m2373 -402 c-3 -4 -29 -7
-57 -7 -43 1 -47 3 -22 8 42 10 85 9 79 -1z m-6130 -1463 c-4 -8 -8 -15 -10
-15 -2 0 -4 7 -4 15 0 8 4 15 10 15 5 0 7 -7 4 -15z m4716 -582 c0 -5 -4 -14
-9 -22 -7 -10 -13 -11 -30 -2 -12 7 -19 16 -16 22 7 11 55 12 55 2z m3637
-142 c1 -2 9 2 18 9 13 11 15 6 15 -34 l0 -47 -34 35 c-32 35 -52 86 -38 100
4 4 13 -8 21 -26 9 -18 17 -35 18 -37z m-4196 -532 c6 -11 4 -21 -6 -29 -13
-11 -15 -6 -14 31 0 24 3 37 6 29 3 -8 9 -22 14 -31z m119 -58 c0 -41 -17 -10
-23 39 -5 44 -5 45 9 15 7 -16 13 -41 14 -54z m-56 -9 c2 -4 1 -14 -5 -22 -5
-8 -9 -11 -9 -6 0 5 -8 2 -18 -7 -33 -30 -79 -5 -52 28 13 16 75 21 84 7z
m-104 -1019 c-1 -18 -19 -35 -29 -28 -9 5 -7 11 6 21 21 16 23 16 23 7z m-46
-29 c9 -23 7 -44 -3 -44 -5 0 -11 8 -15 18 -3 9 -9 23 -12 30 -3 6 1 12 9 12
8 0 18 -7 21 -16z m-439 -923 c3 -5 1 -12 -5 -16 -5 -3 -10 1 -10 9 0 18 6 21
15 7z m47 -89 c7 -26 -28 -48 -48 -31 -21 17 -17 37 9 42 12 2 25 5 28 6 4 0
9 -7 11 -17z m78 -106 c0 -12 -5 -7 -19 24 -11 24 -11 24 3 6 9 -11 16 -24 16
-30z m-51 -23 c12 3 21 1 21 -4 0 -5 -4 -9 -10 -9 -5 0 -10 -7 -10 -15 0 -12
-4 -11 -20 5 -11 11 -20 26 -20 33 0 8 3 8 9 -2 5 -8 18 -12 30 -8z"/>
<path d="M2785 10470 c3 -5 8 -10 11 -10 2 0 4 5 4 10 0 6 -5 10 -11 10 -5 0
-7 -4 -4 -10z"/>
<path d="M3155 8970 c-3 -5 1 -10 9 -10 9 0 16 5 16 10 0 6 -4 10 -9 10 -6 0
-13 -4 -16 -10z"/>
<path d="M3535 8820 c3 -5 8 -10 11 -10 2 0 4 5 4 10 0 6 -5 10 -11 10 -5 0
-7 -4 -4 -10z"/>
<path d="M1811 6629 c-1 -4 6 -23 14 -42 20 -49 18 -57 -6 -28 -17 21 -22 23
-30 10 -8 -11 -12 -11 -16 -1 -4 10 -9 10 -24 -4 -17 -15 -19 -14 -33 17 l-16
34 6 -35 c9 -48 12 -51 35 -37 16 10 21 9 28 -1 4 -7 12 -12 17 -10 21 6 74
-13 74 -26 0 -24 20 -29 40 -11 16 15 17 21 5 67 -8 27 -17 53 -21 57 -3 3 -3
-5 1 -19 3 -14 9 -33 11 -42 12 -40 -34 -4 -73 58 -6 11 -12 16 -12 13z m89
-119 c0 -5 -7 -10 -16 -10 -8 0 -12 5 -9 10 3 6 10 10 16 10 5 0 9 -4 9 -10z"/>
<path d="M2093 6613 c2 -10 8 -26 12 -35 5 -13 2 -15 -16 -11 -18 5 -21 3 -16
-10 4 -11 1 -17 -8 -17 -8 0 -15 5 -15 10 0 15 -29 12 -46 -5 -9 -8 -14 -15
-12 -16 24 -5 118 -3 118 3 0 19 19 6 29 -19 10 -26 10 -26 5 7 -4 19 -13 44
-20 55 -8 11 -14 27 -14 37 0 10 -5 18 -11 18 -6 0 -9 -8 -6 -17z"/>
<path d="M2160 6612 c0 -8 5 -23 11 -35 7 -15 2 -13 -15 8 -14 17 -26 26 -26
22 0 -11 59 -97 67 -97 10 0 -5 69 -21 92 -9 12 -16 17 -16 10z"/>
<path d="M1966 6565 c-3 -9 0 -15 9 -15 9 0 12 6 9 15 -4 8 -7 15 -9 15 -2 0
-5 -7 -9 -15z"/>
<path d="M1191 6134 c0 -11 3 -14 6 -6 3 7 2 16 -1 19 -3 4 -6 -2 -5 -13z"/>
<path d="M1700 5690 c0 -5 5 -10 10 -10 6 0 10 5 10 10 0 6 -4 10 -10 10 -5 0
-10 -4 -10 -10z"/>
<path d="M1708 5553 c6 -2 18 -2 25 0 6 3 1 5 -13 5 -14 0 -19 -2 -12 -5z"/>
<path d="M1700 5500 c0 -5 14 -10 30 -10 17 0 30 5 30 10 0 6 -13 10 -30 10
-16 0 -30 -4 -30 -10z"/>
<path d="M1835 5223 c-5 -10 -7 -24 -6 -30 1 -7 -6 -13 -16 -13 -15 0 -16 -2
-3 -11 16 -11 21 -12 -115 16 -38 8 -92 15 -120 15 -49 -1 -50 -1 -23 -15 15
-8 54 -21 88 -29 34 -8 67 -19 73 -23 15 -11 88 -33 111 -33 11 0 16 9 16 29
0 15 5 43 11 60 13 36 -2 67 -16 34z"/>
<path d="M1498 5203 c7 -3 16 -2 19 1 4 3 -2 6 -13 5 -11 0 -14 -3 -6 -6z"/>
<path d="M1945 5065 c-5 -11 -10 -83 -10 -160 0 -77 -3 -147 -7 -155 -34 -75
-54 -186 -62 -350 -2 -52 -5 -95 -6 -95 -1 0 -2 -31 -3 -70 -2 -65 0 -70 21
-73 12 -2 22 -2 23 0 0 2 3 23 5 48 3 25 10 50 15 57 6 6 9 40 8 75 -5 104 11
208 44 292 l31 79 -21 61 c-30 85 -37 139 -24 194 13 55 2 131 -14 97z"/>
<path d="M1500 5019 c-36 -21 -72 -39 -80 -39 -8 0 -26 -7 -40 -16 -24 -14
-23 -14 25 -8 76 9 175 63 175 94 0 15 -10 11 -80 -31z"/>
<path d="M2803 5000 c0 -25 2 -35 4 -22 2 12 2 32 0 45 -2 12 -4 2 -4 -23z"/>
<path d="M1752 4873 c-6 -2 -10 -8 -8 -11 6 -10 96 -2 96 9 0 9 -66 11 -88 2z"/>
<path d="M1580 4781 c-14 -5 20 -8 82 -8 58 0 112 4 120 8 16 11 -167 10 -202
0z"/>
<path d="M1851 4544 c0 -11 3 -14 6 -6 3 7 2 16 -1 19 -3 4 -6 -2 -5 -13z"/>
<path d="M1842 4480 c0 -14 2 -19 5 -12 2 6 2 18 0 25 -3 6 -5 1 -5 -13z"/>
<path d="M1828 4294 c-1 -31 0 -58 5 -61 4 -2 7 23 7 56 0 76 -7 79 -12 5z"/>
<path d="M1467 4175 c-14 -7 -28 -11 -30 -9 -2 3 -2 -7 0 -21 6 -30 14 -32 31
-5 7 11 19 20 26 20 20 0 29 17 12 23 -7 3 -25 -1 -39 -8z"/>
<path d="M1896 3905 c-3 -9 0 -15 9 -15 8 0 15 7 15 15 0 8 -4 15 -9 15 -5 0
-11 -7 -15 -15z"/>
<path d="M2124 3405 c10 -8 23 -12 29 -8 5 3 7 0 5 -8 -7 -20 9 -48 35 -60 12
-5 31 -15 42 -22 97 -58 118 -68 133 -63 10 4 27 -1 38 -9 10 -8 30 -15 45
-15 14 0 30 -5 37 -12 9 -9 17 -9 34 0 19 10 37 8 102 -13 91 -29 86 -28 86
-15 0 9 -32 25 -125 64 -16 7 -50 22 -75 33 -112 51 -224 80 -244 63 -20 -16
-95 17 -89 40 3 10 -5 21 -22 28 -36 16 -54 15 -31 -3z"/>
<path d="M2240 3349 c0 -5 5 -7 10 -4 6 3 10 8 10 11 0 2 -4 4 -10 4 -5 0 -10
-5 -10 -11z"/>
<path d="M2803 3095 c0 -33 2 -45 4 -27 2 18 2 45 0 60 -2 15 -4 0 -4 -33z"/>
<path d="M2782 2960 c-7 -24 -11 -45 -8 -48 8 -8 27 49 24 71 -2 12 -8 3 -16
-23z"/>
<path d="M2748 2864 c-7 -16 -18 -35 -25 -42 -7 -7 -13 -19 -13 -25 1 -15 38
31 51 62 14 34 2 39 -13 5z"/>
<path d="M2687 2762 c-10 -10 -17 -22 -17 -25 0 -4 -12 -24 -27 -45 -26 -35
-46 -59 -115 -136 -16 -17 -28 -35 -28 -41 0 -17 108 106 161 184 48 71 60
101 26 63z"/>
<path d="M2990 8490 c0 -5 5 -10 10 -10 6 0 10 5 10 10 0 6 -4 10 -10 10 -5 0
-10 -4 -10 -10z"/>
<path d="M4203 8433 c9 -9 20 -13 24 -9 4 4 1 11 -7 16 -25 16 -35 11 -17 -7z"/>
<path d="M4190 8412 c0 -5 13 -15 29 -21 27 -12 29 -17 35 -88 3 -42 6 -93 6
-114 l0 -37 98 -31 c53 -17 102 -31 109 -31 6 0 32 -9 58 -20 69 -29 231 -51
400 -53 144 -2 151 -1 173 21 29 29 19 45 -24 40 -23 -3 -34 0 -34 9 0 7 -8
13 -18 13 -11 0 -27 9 -36 19 -10 11 -41 25 -69 31 -72 17 -139 39 -154 52 -8
6 -11 18 -8 28 8 26 -64 47 -116 33 -33 -9 -43 -8 -62 6 -12 9 -52 30 -89 47
-44 19 -68 35 -68 46 0 13 -13 17 -57 21 -94 8 -130 15 -152 26 -12 7 -21 8
-21 3z"/>
<path d="M4582 8001 c14 -24 17 -24 38 -11 18 11 13 16 -23 25 -27 7 -28 7
-15 -14z"/>
<path d="M4641 7984 c0 -11 3 -14 6 -6 3 7 2 16 -1 19 -3 4 -6 -2 -5 -13z"/>
<path d="M5380 7192 c-14 -2 -33 -11 -42 -19 -17 -15 -204 -47 -220 -37 -16
10 -28 -7 -15 -21 7 -7 25 -26 38 -41 33 -38 66 -57 75 -43 3 6 15 9 25 6 11
-3 19 -1 19 5 0 5 9 6 20 3 12 -4 20 -2 20 5 0 6 14 16 30 21 17 6 30 18 30
27 0 9 12 33 26 54 30 43 30 45 -6 40z"/>
<path d="M5355 6949 c-11 -17 1 -21 15 -4 8 9 8 15 2 15 -6 0 -14 -5 -17 -11z"/>
<path d="M5926 6513 c-64 -57 -76 -86 -17 -42 29 21 97 99 87 99 -3 0 -34 -26
-70 -57z"/>
<path d="M5945 6359 c-16 -6 -58 -8 -91 -5 -44 4 -67 1 -80 -9 -11 -8 -36 -15
-56 -15 -21 0 -38 -4 -38 -9 0 -5 -10 -11 -22 -13 -13 -2 -23 -7 -23 -13 0 -5
-4 -15 -7 -21 -7 -10 17 -42 102 -136 18 -19 32 -26 47 -22 13 4 28 -1 40 -13
12 -12 32 -19 49 -18 16 0 35 -5 42 -12 10 -9 19 -10 32 -3 10 6 28 10 39 10
20 0 20 -1 -2 -23 -28 -29 -93 -77 -104 -77 -5 0 -9 -12 -8 -27 0 -27 3 -28
54 -31 42 -2 65 2 107 24 30 15 54 32 54 38 0 6 11 27 23 46 13 19 27 47 31
63 3 15 10 27 15 27 4 0 20 11 34 24 22 21 25 29 18 49 -5 13 -19 27 -30 30
-14 3 -18 11 -14 25 4 19 1 20 -36 15 -24 -3 -41 -2 -41 4 0 6 -18 23 -40 38
-22 16 -40 36 -40 46 0 21 -10 22 -55 8z m128 -126 c-7 -3 -13 -13 -13 -24 0
-13 -7 -19 -22 -19 -13 0 -33 -3 -45 -6 -35 -9 -28 18 8 36 17 8 43 16 57 16
15 1 21 -1 15 -3z"/>
<path d="M6260 6250 c0 -22 2 -40 4 -40 2 0 6 18 8 40 2 22 0 40 -4 40 -5 0
-8 -18 -8 -40z"/>
<path d="M5280 6207 c0 -8 7 -17 15 -21 8 -3 15 -2 15 3 0 5 -7 14 -15 21 -12
10 -15 10 -15 -3z"/>
<path d="M5393 6127 c4 -10 7 -23 7 -27 0 -5 29 -30 65 -55 36 -26 65 -50 65
-54 0 -4 14 -17 30 -29 36 -27 40 -11 6 21 -13 12 -48 45 -77 72 -30 28 -65
59 -78 70 -22 18 -24 19 -18 2z"/>
<path d="M5920 5890 c0 -11 5 -20 10 -20 6 0 10 9 10 20 0 11 -4 20 -10 20 -5
0 -10 -9 -10 -20z"/>
<path d="M5394 5714 c3 -9 6 -19 6 -23 0 -13 49 -31 55 -21 4 6 2 10 -3 10 -5
0 -14 11 -20 25 -13 27 -48 36 -38 9z"/>
<path d="M4361 4734 c0 -11 3 -14 6 -6 3 7 2 16 -1 19 -3 4 -6 -2 -5 -13z"/>
<path d="M5268 3077 c-26 -22 -47 -67 -31 -67 11 0 83 73 83 83 0 14 -26 6
-52 -16z"/>
<path d="M1591 12784 c0 -11 3 -14 6 -6 3 7 2 16 -1 19 -3 4 -6 -2 -5 -13z"/>
<path d="M1656 12791 c-4 -7 -5 -15 -2 -18 9 -9 19 4 14 18 -4 11 -6 11 -12 0z"/>
<path d="M1681 12784 c0 -11 3 -14 6 -6 3 7 2 16 -1 19 -3 4 -6 -2 -5 -13z"/>
<path d="M1752 12775 c0 -16 2 -22 5 -12 2 9 2 23 0 30 -3 6 -5 -1 -5 -18z"/>
<path d="M1793 12760 c0 -25 2 -35 4 -22 2 12 2 32 0 45 -2 12 -4 2 -4 -23z"/>
<path d="M1960 12790 c0 -5 5 -10 10 -10 6 0 10 5 10 10 0 6 -4 10 -10 10 -5
0 -10 -4 -10 -10z"/>
<path d="M1655 12740 c3 -5 8 -10 11 -10 2 0 4 5 4 10 0 6 -5 10 -11 10 -5 0
-7 -4 -4 -10z"/>
<path d="M1756 12523 c9 -52 14 -54 14 -5 0 23 -5 42 -10 42 -7 0 -8 -14 -4
-37z"/>
<path d="M6821 12494 c0 -11 3 -14 6 -6 3 7 2 16 -1 19 -3 4 -6 -2 -5 -13z"/>
<path d="M1698 12461 c2 -18 10 -31 18 -31 19 0 17 10 -5 39 l-18 23 5 -31z"/>
<path d="M2161 12414 c0 -11 3 -14 6 -6 3 7 2 16 -1 19 -3 4 -6 -2 -5 -13z"/>
<path d="M6785 12410 c-3 -5 -1 -10 4 -10 6 0 11 5 11 10 0 6 -2 10 -4 10 -3
0 -8 -4 -11 -10z"/>
<path d="M1632 12180 c0 -14 2 -19 5 -12 2 6 2 18 0 25 -3 6 -5 1 -5 -13z"/>
<path d="M1671 12174 c0 -11 3 -14 6 -6 3 7 2 16 -1 19 -3 4 -6 -2 -5 -13z"/>
<path d="M1511 11984 c0 -11 3 -14 6 -6 3 7 2 16 -1 19 -3 4 -6 -2 -5 -13z"/>
<path d="M1610 11935 c0 -8 5 -15 10 -15 6 0 10 7 10 15 0 8 -4 15 -10 15 -5
0 -10 -7 -10 -15z"/>
<path d="M378 11933 c7 -3 16 -2 19 1 4 3 -2 6 -13 5 -11 0 -14 -3 -6 -6z"/>
<path d="M1620 11850 c0 -5 5 -10 10 -10 6 0 10 5 10 10 0 6 -4 10 -10 10 -5
0 -10 -4 -10 -10z"/>
<path d="M520 11826 c0 -8 4 -17 9 -20 10 -7 23 19 14 28 -11 11 -23 6 -23 -8z"/>
<path d="M1640 11775 c0 -8 5 -15 10 -15 6 0 10 7 10 15 0 8 -4 15 -10 15 -5
0 -10 -7 -10 -15z"/>
<path d="M960 11530 c0 -6 7 -10 15 -10 8 0 15 2 15 4 0 2 -7 6 -15 10 -8 3
-15 1 -15 -4z"/>
<path d="M960 11430 c0 -5 6 -10 14 -10 8 0 18 5 21 10 3 6 -3 10 -14 10 -12
0 -21 -4 -21 -10z"/>
<path d="M1110 11377 c0 -15 29 -32 38 -22 3 3 0 5 -6 5 -7 0 -11 5 -9 11 1 6
-4 14 -10 16 -7 3 -13 -2 -13 -10z"/>
<path d="M711 11164 c0 -11 3 -14 6 -6 3 7 2 16 -1 19 -3 4 -6 -2 -5 -13z"/>
<path d="M9322 10523 c-19 -48 -25 -119 -12 -143 9 -17 9 -29 -1 -53 -7 -18
-17 -35 -23 -39 -15 -10 0 -22 19 -15 8 4 15 16 15 27 0 11 10 30 22 42 18 18
23 37 26 88 4 64 -9 120 -27 120 -5 0 -13 -12 -19 -27z"/>
<path d="M9276 10234 c-9 -23 -7 -36 3 -30 12 8 21 46 11 46 -4 0 -11 -7 -14
-16z"/>
<path d="M9320 10230 c0 -19 3 -21 12 -12 9 9 9 15 0 24 -9 9 -12 7 -12 -12z"/>
<path d="M9242 10183 c-27 -5 -94 -83 -104 -120 -4 -16 -3 -32 4 -41 10 -11
14 -9 25 12 12 23 51 53 57 44 1 -2 8 -16 14 -32 10 -22 16 -26 24 -18 7 7 20
12 30 12 25 0 22 15 -7 34 -24 16 -24 17 -8 50 15 32 13 68 -4 65 -4 -1 -18
-4 -31 -6z"/>
</g>
</svg>
